<svg xmlns="http://www.w3.org/2000/svg" viewBox="0 0 67.24 139.55"><defs><style>.cls-1{fill:none;stroke:#83c287;stroke-linecap:round;stroke-linejoin:round;}</style></defs><g id="Ebene_2" data-name="Ebene 2"><path class="cls-1" d="M90,45c-1,0-6-2.11-7.54-2.81-1.38-.62-6.18-.1-7.55-.83-1.6-.83-4-1.84-5.43-1.18" transform="translate(-38.16 -1.09)"/><path class="cls-1" d="M71.18,26.67a9.58,9.58,0,0,1,3.43,1.2,4.49,4.49,0,0,0,3.67.64c.88-.4,1.92-2.48,2.56-3.43s1.12-1.36,2-1.36,1.3.41,1.59,0c.89-1.25.94-3,1.44-3.6.31-.36,1.76-1.11,1.68-1.67s-1.08-1.22-1.76-1.28c-1.09-.1-1.94-1.21-3.45-.82s-4.21-.38-4.53.5,0,2.95-.56,3.67A3.73,3.73,0,0,1,73.49,22c-2.23-.24-5.86-2.71-6.16-1.36s-.94,2.48.73,3.76S69.88,26.34,71.18,26.67Z" transform="translate(-38.16 -1.09)"/><path class="cls-1" d="M87.37,16.67c1.1-.59.5-1.26,1.3-1.82A2.65,2.65,0,0,0,90,12.38c-.08-1.2-.63-1.68-1.23-3.2s-1.08-2.07-1.64-1.83-1.76.24-2.48.88A31.62,31.62,0,0,0,81.32,12a5.22,5.22,0,0,1-2.08,2c-.56.16-.88-.32-.8.79s.72,1.84,2.56,1.68,2.87-.24,3.83.24A2.26,2.26,0,0,0,87.37,16.67Z" transform="translate(-38.16 -1.09)"/><path class="cls-1" d="M61.52,14.45c-.82.37-1.09,2.36-.74,3.22s.5,2.37,1.85,2.77,2.06,1,2.83.72,2.49-.88,1.87-1.75-1.57-2.76-2.65-3.06S62.23,14.14,61.52,14.45Z" transform="translate(-38.16 -1.09)"/><path class="cls-1" d="M77.25,19.67c-.5-.59-2.08-.66-2.64-.66s-1-.72-2.15-1.34a5.56,5.56,0,0,0-3.3-.5C68,17.25,68.06,16,67,15.41s-1.12-2.07-2.27-2.23-1.09.48-.63.64.42,1.51,0,3.19.1,1.84,1.06,3,2-1,1.84.46,1.11,3.86,2.55,3.14,1.68.16,2.8.56,1.2,2.21,1.2,3.09" transform="translate(-38.16 -1.09)"/><path class="cls-1" d="M84.67,8.23c-.6-1.34-1.11-1.92-1.91-2.08s-2.4-.08-2.68.48a18.89,18.89,0,0,1-.68,2.16c-.4.63-1.51,1.83-1.59,2.71s-.75.77,0,1.65a2,2,0,0,0,2.56,0c.33-.36,1.72-2.19,2.39-2.93S84.91,8.75,84.67,8.23Z" transform="translate(-38.16 -1.09)"/><path class="cls-1" d="M77.25,12.48c-1.12,1.06-2.45.09-3.14.67s-1,1.7-1.65,1.86-1.28.49-1.44-.59a8.21,8.21,0,0,0-1.52-3.48c-.72-.88-1.52-1.36-1.6-2.55s-1-3.12,0-3.92.88-1.83,3-2,2.5.56,3.17,0a3.31,3.31,0,0,1,3.14-.72,6.17,6.17,0,0,1,2.83,2.79c.36,1,.35.8,0,2.08a16.34,16.34,0,0,1-1.65,3.5C78,11,77.74,12,77.25,12.48Z" transform="translate(-38.16 -1.09)"/><path class="cls-1" d="M65.46,5.67c.87-.5,2.09-1.17,2.05-.5s.07,3.23.58,4S71.18,13,71,14.42s-.06,1.47-.87,1.63-.62.64-1.91,0S66,13.46,64.68,13.18c-.64-.14-1-.17-.63.64s1,2.24,0,1.83-1.82-2.11-2.53-2-1.25-.62-.74-1.5S63.11,9.82,63.35,9,64.21,6.39,65.46,5.67Z" transform="translate(-38.16 -1.09)"/><path class="cls-1" d="M87.15,7.35a25.6,25.6,0,0,1-.64,2.51c-.16,1.08,0,2.87.64,3.29s1.89,1.08,1.52,1.7" transform="translate(-38.16 -1.09)"/><path class="cls-1" d="M82.84,23.72c-.8-.94.24-1.24.72-2.5a5,5,0,0,1,1.51-2.45c.8-.72-.6-1.74-.84-2.3" transform="translate(-38.16 -1.09)"/><path class="cls-1" d="M72.46,15c.39,1.12,1.06.08,1.44.8s1.43.73,2.55.56a11.34,11.34,0,0,0,2.28-.63" transform="translate(-38.16 -1.09)"/><path class="cls-1" d="M93.21,81.71c-.88-1.16-2.72-3.56-3.12-5.08s-1.51-5.66-2.47-6.7S84,65.2,82.75,64.26a16,16,0,0,1-3-3.12c-.23-.31-1.24-1.11-1.8-1a1.54,1.54,0,0,0-1.19,1.74" transform="translate(-38.16 -1.09)"/><path class="cls-1" d="M88.19,83.93a7.3,7.3,0,0,1-2.64-3.44,68.56,68.56,0,0,1-1.28-7.1,7.38,7.38,0,0,0-1.51-4.16c-.72-.87-4.8-5.78-6-7.38-1.36-1.83-1.62-3.27-2.66-3.72a2,2,0,0,0-2.43,1,7.73,7.73,0,0,0,1,4.24c.55.63,1.67,2.15,2.63,3.19a15.88,15.88,0,0,1,2.56,6.87c.16,2.15,0,8.46-1,10.06s-2.74,3.67-2.74,3.67" transform="translate(-38.16 -1.09)"/><path class="cls-1" d="M76.85,83.45c-1.07,1.4-5-.55-5.75-1.48s-1-5.23,0-6.59a28.18,28.18,0,0,0,3-5.27c.73-2,.65-4.22-.14-5.2s-2.79-1.51-3-.87-.22,3.44-.79,4.4-4.08,4.79-4.32,5.82S63.6,81.05,64,83.45s1.52,9.66,3.29,14.13,3.21,7.59,3.45,9.9.48,9,.48,9-4.33,4.95-5.8,5.67-8.26,4.63-8.26,4.63,2.88,5.75,5.35,7.9,7.35,5.51,7.35,5.51l18.61-19.48s1.51-8.87,2.87-12.06,8.15-15.17,8.15-15.17a92.41,92.41,0,0,1,.47-10,16.89,16.89,0,0,1,2.08-4.23c.43.18.27-4.58.88-9.91.43-3.75,2.16-7.51,1.92-7.82a3,3,0,0,0-3.76,0,13.31,13.31,0,0,0-2.71,6,44.43,44.43,0,0,1-1,7.1A25.11,25.11,0,0,1,95,78.43l2.59,5c-.4-.88-3.2-5.67-3.67-7.83S91.14,67.72,90,67s-5.59-3.2-6.7-3.28a4.12,4.12,0,0,1-2.67-1.47" transform="translate(-38.16 -1.09)"/><path class="cls-1" d="M46.05,53.17a8.31,8.31,0,0,1,3.52-.55,53,53,0,0,1,6.16,1.44,2,2,0,0,0,2.18-.75c.3-.45,3.62-2.84,3.61-3.52s-.47-1.52,0-2.34A29.82,29.82,0,0,1,63.67,45" transform="translate(-38.16 -1.09)"/><path class="cls-1" d="M47.54,29.15c1.36-.57,2.72-2.24,4.31-2.08s3,1,3.28,2.08S56,32.9,55.61,34s-.38,4.76-.32,6.23c0,1.1-1.6-.24-2.72.56s-1.44,1.67-2.15,1.27a12.26,12.26,0,0,1-4.71-3.67c-2.16-2.63-3.28-4.95-3.12-6.23s.08-2.47,1-2.63S46.71,29.49,47.54,29.15Z" transform="translate(-38.16 -1.09)"/><path class="cls-1" d="M61,29.07c1.36,1.06,2.63,1.92,2.63,3.11,0,1-2.71,2.3-4.42,6.07-1.08,2.39-3.48,3.84-3.8,2.72-.49-1.68,0-5.76.16-6.95s-.24-5.14-1-5.73.13-.82,1.11-.82A10,10,0,0,1,61,29.07Z" transform="translate(-38.16 -1.09)"/><path class="cls-1" d="M64.47,32.66c.7.53-.48,5.59-2.32,7s-2.3,3.31-3.75,3c-1.88-.46-2.61-.45-1.28-1.29.93-.58,2.91-4.71,3.55-5.51S63.51,31.94,64.47,32.66Z" transform="translate(-38.16 -1.09)"/><path class="cls-1" d="M56.49,43.12c.46-.33,5.27.08,6.54,1a3.2,3.2,0,0,1,.32,4.31A52.94,52.94,0,0,0,59,51.91c-1.65,1.67-1.55,3-3.28,3.59s-6.67.8-7.63,0-2.47-2.16-2.16-3.28,2.88-6.3,5-6.54,2.87.08,4.07-.4S55.47,43.84,56.49,43.12Z" transform="translate(-38.16 -1.09)"/><path class="cls-1" d="M41.07,36.65c.87-1,1.15-1.89,2.29-1.7S46,39.21,47.55,40.3s2.66,1.46,1.61,1.54-4.09-.28-5.37.34-3,1.82-3.2,2.54.08,1.6-.55,1.36a2.06,2.06,0,0,1-1.36-2.32c.16-1.44,1.75-2.25,1.75-3.24S40.29,37.59,41.07,36.65Z" transform="translate(-38.16 -1.09)"/><path class="cls-1" d="M50.26,43c.29.78,1,1.31.72,1.79s-3.27,3.82-3.75,4.71-1.29,3.35-2.4,3.59-4.67-.05-4.63-1.83c0-1.48.64-3.44.29-5.51-.24-1.45,1.78-3.25,3.3-3.58s5.09-.82,5.78,0S50,42.31,50.26,43Z" transform="translate(-38.16 -1.09)"/><path class="cls-1" d="M48.18,67.64c-.06-.83,6.57-8.07,7.55-8.55s2-1.51,3.79-2,4.9-1.84,5.94-1.44-.18,1.68-.78,3.19A13.87,13.87,0,0,1,60.78,65c-2.7,2.48-6.29,4.31-9.09,3.83S48.26,68.67,48.18,67.64Z" transform="translate(-38.16 -1.09)"/><path class="cls-1" d="M48.74,67.24c.36-.69,2.39-.88,4.15-2.24a33,33,0,0,0,4-3.93c1.37-1.42,3.81-1.7,5.05-2.3,1.82-.88,4.32-3.84,3.92-2.76-.28.75-2.17,7.23-5.78,9.61-3.36,2.21-6.7,3.45-8.37,3.21S48.21,68.24,48.74,67.24Z" transform="translate(-38.16 -1.09)"/><path class="cls-1" d="M59,51.91c1.79.47,5,2.55,6.45,3.27s5.07,4.45,8.51,9.73c1.85,2.83,2.19,9.59,1.68,11.75" transform="translate(-38.16 -1.09)"/><path class="cls-1" d="M70.86,27.06c-.16,1.45-2.32,7.84-2.24,11.19s-.16,7.74.32,11.26.56,9.08,3.5,13.42" transform="translate(-38.16 -1.09)"/><path class="cls-1" d="M69.5,40.17c0-.11-.5.47,0,0a5.65,5.65,0,0,1,2.18-1c1.49,0,4.69-.8,8.2,0S91.54,44.37,91,45s-3.24,1-4.07,1c-.64,0-3.67,1.13-6.47,1.05s-7-1.51-8.3-2.71S69.24,41.12,69.5,40.17Z" transform="translate(-38.16 -1.09)"/><path class="cls-1" d="M92.34,85.52a6.8,6.8,0,0,1,.8,3,42.82,42.82,0,0,1,0,4.79" transform="translate(-38.16 -1.09)"/></g></svg>